<svg width="500" height="500" viewBox="0 0 500 500" fill="none" xmlns="http://www.w3.org/2000/svg">
<rect width="500" height="500" fill="white"/>
<path d="M296.5 272.5V182L381 158V302L296.5 272.5Z" fill="#24A9F4"/>
<path d="M183.75 263.188V273H138.25V263.188H183.75ZM140.625 182V273H128.562V182H140.625ZM201.375 182H213.062L242.875 256.188L272.625 182H284.375L247.375 273H238.25L201.375 182ZM197.562 182H207.875L209.562 237.5V273H197.562V182ZM277.812 182H288.125V273H276.125V237.5L277.812 182Z" fill="#24A9F4"/>
<path d="M357.812 250C357.812 247.875 357.479 246 356.812 244.375C356.188 242.708 355.062 241.208 353.438 239.875C351.854 238.542 349.646 237.271 346.812 236.062C344.021 234.854 340.479 233.625 336.188 232.375C331.688 231.042 327.625 229.562 324 227.938C320.375 226.271 317.271 224.375 314.688 222.25C312.104 220.125 310.125 217.688 308.75 214.938C307.375 212.188 306.688 209.042 306.688 205.5C306.688 201.958 307.417 198.688 308.875 195.688C310.333 192.688 312.417 190.083 315.125 187.875C317.875 185.625 321.146 183.875 324.938 182.625C328.729 181.375 332.958 180.75 337.625 180.75C344.458 180.75 350.25 182.062 355 184.688C359.792 187.271 363.438 190.667 365.938 194.875C368.438 199.042 369.688 203.5 369.688 208.25H357.688C357.688 204.833 356.958 201.812 355.5 199.188C354.042 196.521 351.833 194.438 348.875 192.938C345.917 191.396 342.167 190.625 337.625 190.625C333.333 190.625 329.792 191.271 327 192.562C324.208 193.854 322.125 195.604 320.75 197.812C319.417 200.021 318.75 202.542 318.75 205.375C318.75 207.292 319.146 209.042 319.938 210.625C320.771 212.167 322.042 213.604 323.75 214.938C325.5 216.271 327.708 217.5 330.375 218.625C333.083 219.75 336.312 220.833 340.062 221.875C345.229 223.333 349.688 224.958 353.438 226.75C357.188 228.542 360.271 230.562 362.688 232.812C365.146 235.021 366.958 237.542 368.125 240.375C369.333 243.167 369.938 246.333 369.938 249.875C369.938 253.583 369.188 256.938 367.688 259.938C366.188 262.938 364.042 265.5 361.25 267.625C358.458 269.75 355.104 271.396 351.188 272.562C347.312 273.688 342.979 274.25 338.188 274.25C333.979 274.25 329.833 273.667 325.75 272.5C321.708 271.333 318.021 269.583 314.688 267.25C311.396 264.917 308.75 262.042 306.75 258.625C304.792 255.167 303.812 251.167 303.812 246.625H315.812C315.812 249.75 316.417 252.438 317.625 254.688C318.833 256.896 320.479 258.729 322.562 260.188C324.688 261.646 327.083 262.729 329.75 263.438C332.458 264.104 335.271 264.438 338.188 264.438C342.396 264.438 345.958 263.854 348.875 262.688C351.792 261.521 354 259.854 355.5 257.688C357.042 255.521 357.812 252.958 357.812 250Z" fill="white"/>
<path d="M216.031 329.078H209.953V326.625H216.031C217.208 326.625 218.161 326.438 218.891 326.062C219.62 325.688 220.151 325.167 220.484 324.5C220.828 323.833 221 323.073 221 322.219C221 321.438 220.828 320.703 220.484 320.016C220.151 319.328 219.62 318.776 218.891 318.359C218.161 317.932 217.208 317.719 216.031 317.719H210.656V338H207.641V315.25H216.031C217.75 315.25 219.203 315.547 220.391 316.141C221.578 316.734 222.479 317.557 223.094 318.609C223.708 319.651 224.016 320.844 224.016 322.188C224.016 323.646 223.708 324.891 223.094 325.922C222.479 326.953 221.578 327.74 220.391 328.281C219.203 328.812 217.75 329.078 216.031 329.078ZM236.219 329.078H230.141V326.625H236.219C237.396 326.625 238.349 326.438 239.078 326.062C239.807 325.688 240.339 325.167 240.672 324.5C241.016 323.833 241.188 323.073 241.188 322.219C241.188 321.438 241.016 320.703 240.672 320.016C240.339 319.328 239.807 318.776 239.078 318.359C238.349 317.932 237.396 317.719 236.219 317.719H230.844V338H227.828V315.25H236.219C237.938 315.25 239.391 315.547 240.578 316.141C241.766 316.734 242.667 317.557 243.281 318.609C243.896 319.651 244.203 320.844 244.203 322.188C244.203 323.646 243.896 324.891 243.281 325.922C242.667 326.953 241.766 327.74 240.578 328.281C239.391 328.812 237.938 329.078 236.219 329.078ZM256.422 315.25V338H253.453V315.25H256.422ZM263.734 315.25V317.719H246.156V315.25H263.734ZM270.344 315.25V338H267.328V315.25H270.344ZM278.844 315.25V338H275.828V315.25H278.844ZM292.578 315.25L283.125 325.859L277.812 331.375L277.312 328.156L281.312 323.75L288.953 315.25H292.578ZM289.672 338L281.25 326.906L283.047 324.516L293.266 338H289.672Z" fill="#24A9F4"/>
</svg>
